<?xml version="1.0" encoding="UTF-8" standalone="no"?>
<!-- Created with Inkscape (http://www.inkscape.org/) -->

<svg
   xmlns:dc="http://purl.org/dc/elements/1.1/"
   xmlns:cc="http://creativecommons.org/ns#"
   xmlns:rdf="http://www.w3.org/1999/02/22-rdf-syntax-ns#"
   xmlns:svg="http://www.w3.org/2000/svg"
   xmlns="http://www.w3.org/2000/svg"
   xmlns:xlink="http://www.w3.org/1999/xlink"
   xmlns:sodipodi="http://sodipodi.sourceforge.net/DTD/sodipodi-0.dtd"
   xmlns:inkscape="http://www.inkscape.org/namespaces/inkscape"
   width="744.09448819"
   height="1052.3622047"
   id="svg2"
   version="1.1"
   inkscape:version="0.48.4 r9939"
   sodipodi:docname="Init.Net.svg">
  <defs
     id="defs4">
    <radialGradient
       inkscape:collect="always"
       xlink:href="#linearGradient5687-7"
       id="radialGradient5693-2"
       cx="-357.07227"
       cy="616.24542"
       fx="-357.07227"
       fy="616.24542"
       r="249.99998"
       gradientTransform="matrix(1,0,0,0.80000005,0,123.24905)"
       gradientUnits="userSpaceOnUse" />
    <linearGradient
       inkscape:collect="always"
       id="linearGradient5687-7">
      <stop
         style="stop-color:#f2f2f2;stop-opacity:1;"
         offset="0"
         id="stop5689-7" />
      <stop
         style="stop-color:#f2f2f2;stop-opacity:0;"
         offset="1"
         id="stop5691-1" />
    </linearGradient>
    <radialGradient
       inkscape:collect="always"
       xlink:href="#linearGradient5687-4"
       id="radialGradient5693-0"
       cx="-357.07227"
       cy="616.24542"
       fx="-357.07227"
       fy="616.24542"
       r="249.99998"
       gradientTransform="matrix(1,0,0,0.80000005,256.57875,-296.97441)"
       gradientUnits="userSpaceOnUse" />
    <linearGradient
       inkscape:collect="always"
       id="linearGradient5687-4">
      <stop
         style="stop-color:#f2f2f2;stop-opacity:1;"
         offset="0"
         id="stop5689-9" />
      <stop
         style="stop-color:#f2f2f2;stop-opacity:0;"
         offset="1"
         id="stop5691-4" />
    </linearGradient>
  </defs>
  <sodipodi:namedview
     id="base"
     pagecolor="#ffffff"
     bordercolor="#666666"
     borderopacity="1.0"
     inkscape:pageopacity="0.0"
     inkscape:pageshadow="2"
     inkscape:zoom="0.35"
     inkscape:cx="-98.857161"
     inkscape:cy="612.22773"
     inkscape:document-units="px"
     inkscape:current-layer="g6185"
     showgrid="false"
     inkscape:window-width="1292"
     inkscape:window-height="745"
     inkscape:window-x="66"
     inkscape:window-y="-8"
     inkscape:window-maximized="1"
     showguides="true"
     inkscape:guide-bbox="true" />
  <metadata
     id="metadata7">
    <rdf:RDF>
      <cc:Work
         rdf:about="">
        <dc:format>image/svg+xml</dc:format>
        <dc:type
           rdf:resource="http://purl.org/dc/dcmitype/StillImage" />
        <dc:title />
      </cc:Work>
    </rdf:RDF>
  </metadata>
  <g
     inkscape:label="Layer 1"
     inkscape:groupmode="layer"
     id="layer1">
    <g
       id="g6185"
       transform="translate(395.94375,899.05109)">
      <g
         id="g3147"
         transform="translate(969.14208,355.14285)">
        <g
           transform="translate(-969.14208,-355.14285)"
           id="g3128">
          <g
             transform="matrix(1.2695312,0,0,1.2695312,479.29185,-41.322132)"
             id="g6163">
            <path
               inkscape:connector-curvature="0"
               id="rect6021-0"
               d="m -626.3622,-358.6889 385.89163,0 c 34.93202,0 63.05419,28.12216 63.05419,63.05418 l 0,385.891632 c 0,34.932018 -28.12217,63.054188 -63.05419,63.054188 l -385.89163,0 c -34.93202,0 -63.05418,-28.12217 -63.05418,-63.054188 l 0,-385.891632 c 0,-34.93202 28.12216,-63.05418 63.05418,-63.05418 z"
               style="fill:#ececec;fill-opacity:1;stroke:none" />
            <path
               inkscape:connector-curvature="0"
               style="fill:#1a1a1a;fill-opacity:1;stroke:none"
               d="m -689.41637,-12.16091 0,102.399999 c 0,34.932021 28.10798,63.072001 63.04,63.072001 l 385.88799,0 c 34.93202,0 63.072,-28.13998 63.072,-63.072001 l 0,-102.399999 c 0,34.932019 -28.13998,63.071999 -63.072,63.071999 l -385.88799,0 c -34.93202,0 -63.04,-28.13998 -63.04,-63.071999 z"
               id="rect6021" />
            <g
               id="text5683-3"
               style="font-size:40.95999908px;font-style:normal;font-weight:normal;line-height:125%;letter-spacing:0px;word-spacing:0px;fill:#f2f2f2;fill-opacity:1;stroke:none;font-family:Sans">
              <path
                 inkscape:connector-curvature="0"
                 id="path6171"
                 style="font-size:102.40000153px;font-variant:normal;font-weight:bold;font-stretch:normal;fill:#f2f2f2;font-family:Segoe UI;-inkscape-font-specification:Segoe UI Bold"
                 d="m -575.86637,137.7251 -16.15,0 0,-71.700003 16.15,0 z" />
              <path
                 inkscape:connector-curvature="0"
                 id="path6173"
                 style="font-size:102.40000153px;font-variant:normal;font-weight:bold;font-stretch:normal;fill:#f2f2f2;font-family:Segoe UI;-inkscape-font-specification:Segoe UI Bold"
                 d="m -511.71637,137.7251 -15.75,0 0,-28.45 c -4e-5,-7.9333 -2.83337,-11.899963 -8.5,-11.900003 -2.73336,4e-5 -4.98336,1.050039 -6.75,3.150003 -1.76669,2.10003 -2.65002,4.7667 -2.65,8 l 0,29.2 -15.8,0 0,-51.200003 15.8,0 0,8.1 0.2,0 c 3.76664,-6.233284 9.24997,-9.349948 16.45,-9.35 11.33329,5.2e-5 16.99995,7.033379 17,21.100003 z" />
              <path
                 inkscape:connector-curvature="0"
                 id="path6175"
                 style="font-size:102.40000153px;font-variant:normal;font-weight:bold;font-stretch:normal;fill:#f2f2f2;font-family:Segoe UI;-inkscape-font-specification:Segoe UI Bold"
                 d="m -491.16637,78.425097 c -2.66668,5.9e-5 -4.85001,-0.791607 -6.55,-2.375 -1.7,-1.58327 -2.55,-3.524935 -2.55,-5.825 0,-2.366597 0.85,-4.299929 2.55,-5.8 1.69999,-1.499926 3.88332,-2.249925 6.55,-2.25 2.69998,7.5e-5 4.89165,0.750074 6.575,2.25 1.68331,1.500071 2.52498,3.433403 2.525,5.8 -2e-5,2.400065 -0.84169,4.36673 -2.525,5.9 -1.68335,1.533393 -3.87502,2.300059 -6.575,2.3 z m 7.8,59.300003 -15.8,0 0,-51.200003 15.8,0 z" />
              <path
                 inkscape:connector-curvature="0"
                 id="path6177"
                 style="font-size:102.40000153px;font-variant:normal;font-weight:bold;font-stretch:normal;fill:#f2f2f2;font-family:Segoe UI;-inkscape-font-specification:Segoe UI Bold"
                 d="m -462.91636,138.9751 c -2.60001,0 -4.76668,-0.8 -6.5,-2.4 -1.73334,-1.6 -2.60001,-3.56666 -2.6,-5.9 -10e-6,-2.39999 0.89166,-4.36666 2.675,-5.9 1.78332,-1.53332 4.00832,-2.29999 6.675,-2.3 2.69998,1e-5 4.90831,0.77501 6.625,2.325 1.71664,1.55001 2.57497,3.50834 2.575,5.875 -3e-5,2.43334 -0.87503,4.425 -2.625,5.975 -1.75002,1.55 -4.02502,2.325 -6.825,2.325 z" />
              <path
                 inkscape:connector-curvature="0"
                 id="path6179"
                 style="font-size:102.40000153px;font-variant:normal;font-weight:bold;font-stretch:normal;fill:#f2f2f2;font-family:Segoe UI;-inkscape-font-specification:Segoe UI Bold"
                 d="m -376.11636,137.7251 -16.3,0 -29.55,-45.050003 c -1.73336,-2.633286 -2.93336,-4.616617 -3.6,-5.95 l -0.2,0 c 0.26664,2.533382 0.39998,6.400045 0.4,11.6 l 0,39.400003 -15.25,0 0,-71.700003 17.4,0 28.45,43.650003 c 1.29995,1.96669 2.49994,3.91669 3.6,5.85 l 0.2,0 c -0.26672,-1.66665 -0.40006,-4.94998 -0.4,-9.85 l 0,-39.650003 15.25,0 z" />
              <path
                 inkscape:connector-curvature="0"
                 id="path6181"
                 style="font-size:102.40000153px;font-variant:normal;font-weight:bold;font-stretch:normal;fill:#f2f2f2;font-family:Segoe UI;-inkscape-font-specification:Segoe UI Bold"
                 d="m -315.16636,116.6251 -33.4,0 c 0.53331,7.43334 5.21664,11.15001 14.05,11.15 5.63329,1e-5 10.58329,-1.33332 14.85,-4 l 0,11.4 c -4.73338,2.53333 -10.88337,3.8 -18.45,3.8 -8.26669,0 -14.68335,-2.29167 -19.25,-6.875 -4.56667,-4.58333 -6.85,-10.97499 -6.85,-19.175 0,-8.49997 2.46666,-15.233296 7.4,-20.200003 4.93332,-4.966617 10.99998,-7.449948 18.2,-7.45 7.46663,5.2e-5 13.24162,2.216717 17.325,6.65 4.08328,4.433375 6.12495,10.450033 6.125,18.050003 z m -14.65,-9.7 c -4e-5,-7.333298 -2.9667,-10.999961 -8.9,-11.000003 -2.53336,4.2e-5 -4.72502,1.050041 -6.575,3.15 -1.85002,2.100033 -2.97502,4.716703 -3.375,7.850003 z" />
              <path
                 inkscape:connector-curvature="0"
                 id="path6183"
                 style="font-size:102.40000153px;font-variant:normal;font-weight:bold;font-stretch:normal;fill:#f2f2f2;font-family:Segoe UI;-inkscape-font-specification:Segoe UI Bold"
                 d="m -274.81635,137.1251 c -2.33337,1.23333 -5.85003,1.85 -10.55,1.85 -11.13335,0 -16.70001,-5.78333 -16.7,-17.35 l 0,-23.450003 -8.3,0 0,-11.65 8.3,0 0,-11.05 15.75,-4.5 0,15.55 11.5,0 0,11.65 -11.5,0 0,20.700003 c -3e-5,5.33334 2.11664,8.00001 6.35,8 1.66663,1e-5 3.3833,-0.48332 5.15,-1.45 z" />
            </g>
          </g>
        </g>
        <path
           style="fill:#1a1a1a"
           inkscape:connector-curvature="0"
           d="m -850.56335,-634.82778 h -29.934 c -3.903,-15 -9.922,-29.443 -17.675,-42.547 l 21.231,-21.282 c 6.438,-6.436 6.438,-16.895 0,-23.331 l -34.96,-34.972 c -6.434,-6.436 -16.86999,-6.442 -23.30399,-0.01 l -21.332,21.23 c -13.103,-7.753 -27.546,-13.777 -42.546,-17.677 v -29.935 c 0,-9.101 -7.17906,-16.47997 -16.28006,-16.47997 h -49.44 c -9.101,0 -16.28,7.37897 -16.28,16.47997 v 29.935 c -15,3.9 -29.443,9.921 -42.547,17.675 l -21.282,-21.232 c -6.436,-6.438 -16.895,-6.438 -23.331,0 l -34.972,34.96 c -6.436,6.434 -6.442,16.87 -0.01,23.304 l 21.23,21.332 c -7.755,13.103 -13.777,27.546 -17.677,42.546 h -29.935 c -9.101,0 -16.48,7.179 -16.48,16.28 v 49.44 c 0,9.102 7.379,16.28 16.48,16.28 h 29.935 c 3.9,15 9.921,29.443 17.675,42.547 l -21.234,21.28198 c -6.436,6.434 -6.436,16.895 0,23.328 l 34.96,34.973 c 6.436,6.438 16.87,6.444 23.306,0.007 l 21.332,-21.229 c 13.103,7.753 27.546,13.775 42.546,17.678 v 29.934 c 0,9.102 7.179,16.48 16.28,16.48 h 49.44 c 9.102,0 16.28006,-7.379 16.28006,-16.48 v -29.934 c 15,-3.903 29.443,-9.922 42.547,-17.675 l 21.282,21.231 c 6.434,6.438 16.89499,6.438 23.32799,0 l 34.973,-34.96 c 6.438,-6.434 6.444,-16.87 0.01,-23.304 l -21.229,-21.33198 c 7.753,-13.103 13.775,-27.546 17.678,-42.546 h 29.934 c 9.102,0 16.48004,-7.179 16.48004,-16.28 v -49.44 c 0,-9.101 -7.37904,-16.28 -16.48004,-16.28 z m -189.52005,123.4 c -45.509,0 -82.4,-36.892 -82.4,-82.4 0,-45.509 36.891,-82.4 82.4,-82.4 45.50906,0 82.40006,36.891 82.40006,82.4 0,45.509 -36.891,82.4 -82.40006,82.4 z"
           id="path3100-7" />
      </g>
    </g>
  </g>
</svg>
